<svg xmlns="http://www.w3.org/2000/svg" width="682.667" height="682.667" version="1.0" viewBox="0 0 512 512"><path d="M237 .7c-37.9 3.6-66.1 11.6-98 27.8-37.8 19.3-71.7 49.7-96.5 86.5-10.4 15.6-23.2 41.9-29.4 60.5-4.9 15-8.9 32.1-11.3 49-1.7 11.8-1.7 51.2 0 63 4.2 29.5 12 55.3 24.2 80 13.7 28 27.2 46.8 49.4 69.1 22.1 22 41.2 35.7 68.1 48.9 18.8 9.2 30.9 13.7 50 18.5 50 12.6 100.2 10.2 149-7.1 14.9-5.3 40.7-18.2 54-27.1 36.5-24.3 66.7-57.8 86.6-96.3 18.1-34.8 27.1-69.4 28.6-109 1.5-42.6-7.3-83.2-26.3-121.4-12.4-25-26.3-44.7-45.8-64.8-21.6-22.4-42.8-37.8-71.1-51.8C338.9 11.9 311.3 4 278.5 1 268.3.1 245.2-.1 237 .7zm166.9 142.8c6 3.3 11 8.7 14.3 15.4l2.3 4.6v185l-2.3 4.6c-3.3 6.7-8.3 12.1-14.3 15.4l-5.4 3h-285l-5.4-3c-6-3.3-11-8.7-14.3-15.4l-2.3-4.6v-185l2.8-5.7c3.4-6.9 10-13 17.1-15.7 5-2 7.6-2 146.1-1.8l141 .2 5.4 3z"/><path d="M145 167.4c3.2 3 109.1 86.7 110.4 87.2 1 .4 104.8-80.7 111.6-87.2 1.2-1.2-14.5-1.4-111-1.4-96.1 0-112.2.2-111 1.4z"/><path d="M118 261.3c0 77.6.1 81.5 1.8 83 1.7 1.6 12.6 1.7 136.4 1.7 129.2 0 134.6-.1 136.2-1.8 1.5-1.7 1.6-8.6 1.4-82.9l-.3-81.1-21 16.8c-83.7 66.6-111.1 88-113.6 88.5-1.6.4-4.2.4-5.7 0-1.5-.3-19-13.4-38.8-29.1-28.5-22.7-80.7-64-94.1-74.7l-2.3-1.8v81.4z"/></svg>