<svg xmlns="http://www.w3.org/2000/svg" width="682.667" height="682.667" version="1.0" viewBox="0 0 512 512"><path d="M232.1 1C145.3 9.4 67.7 62 28.4 139.2c-13.9 27.3-22.1 53.6-26.6 85.3-2 14-1.7 50.4.6 66 3.9 27.8 12.1 54.1 24.7 79.4 24.9 50.2 64.7 90 115 115 81.5 40.6 177.9 35 253.9-14.7 29.7-19.4 57.9-48.2 77.1-78.8 7.4-11.6 18.4-34.2 23.4-47.8 5.1-13.8 11-37.6 13.1-53.1 2.3-15.7 2.6-52.1.6-66-5.9-41.5-19.1-76.9-41-109.9-9.2-14-18.5-25.4-31.5-38.5-39.9-40.3-89.5-65.3-146.2-73.7C279.3.6 244.9-.2 232.1 1zm95 129.3c27.9 8.4 47.9 29 55 56.7 2.1 8.1 2.1 129.9 0 138-7.3 28.5-28.6 49.8-57.1 57.1-8.1 2.1-129.9 2.1-138 0-27.9-7.2-48.8-27.6-56.8-55.5-1.5-5.5-1.7-12.3-1.7-70.6 0-70.5-.1-68.5 6-82.5 9.5-21.3 30.9-39.1 52.5-43.4 3-.6 6.4-1.3 7.5-1.5 1.1-.2 30.1-.3 64.5-.2 55.4.2 63.1.4 68.1 1.9z"/><path d="M191.3 155.5c-8.6 2.4-15.4 6.4-22.4 13.4-7.2 7.2-11.1 13.8-13.4 22.8-2.3 8.6-2.2 120.1 0 128.8 2.4 9.1 7.1 16.9 14.2 23.5 7.1 6.7 13.4 10.3 22 12.5 8.6 2.3 120.1 2.2 128.8 0 9.1-2.4 16.9-7.1 23.5-14.2 6.7-7.1 10.3-13.4 12.5-22 2.2-8.5 2.2-120.1 0-128.6-2.2-8.6-5.8-14.9-12.5-22-6.6-7.1-14.4-11.8-23.5-14.2-8.4-2.1-121.2-2.1-129.2 0zm135.2 18.6c5.5 1.4 11.1 7.2 12.1 12.4 1.5 8.1-4.7 17.7-12.2 19.1-8.3 1.5-15.4-2-18.6-9.4-3.9-8.7.4-18.4 9.7-21.7 4.9-1.7 3.8-1.7 9-.4zm-56.1 17.4c18.4 3.9 36.1 17.7 44.4 34.6 5.6 11.4 7.5 20.6 6.9 33.4-.8 17.4-6.8 30.5-19.7 43.5-12.4 12.5-28.2 19-46.1 19-18 0-33.2-6.4-46.4-19.5-13.1-13.1-19.5-28.3-19.5-46.5s6.4-33.4 19.5-46.5c16.4-16.4 38.1-22.8 60.9-18z"/><path d="M241.7 218.4c-11.5 4.8-17.4 10.4-22.5 21.3-2.4 5.2-2.7 7-2.7 16.3 0 9.7.2 11 3.2 17.2 4 8.4 10.7 15.1 19.3 19.2 6 2.9 7.3 3.1 17 3.1s11-.2 17.2-3.2c8.5-4 15.1-10.6 19.1-19.1 3-6.2 3.2-7.5 3.2-17.2s-.2-11-3.2-17.2c-4-8.5-10.6-15.1-19.1-19.1-5.8-2.8-7.9-3.2-16.2-3.5-8.2-.2-10.3.1-15.3 2.2z"/></svg>