<svg xmlns="http://www.w3.org/2000/svg" width="682.667" height="682.667" version="1.0" viewBox="0 0 512 512"><path d="M232.1 1C98.1 14-4 129.3.3 263c1.3 38.9 9.7 72.6 26.8 106.9 24.9 50.2 64.7 90 115 115 81.5 40.6 177.9 35 253.9-14.7 29.7-19.4 57.9-48.2 77.1-78.8 7.4-11.6 18.4-34.2 23.4-47.8 5.1-13.8 11-37.6 13.1-53.1 2.3-15.7 2.6-52.1.6-66-5.9-41.5-19.1-76.9-41-109.9-9.2-14-18.5-25.4-31.5-38.5-39.9-40.3-89.5-65.3-146.2-73.7C279.3.6 244.9-.2 232.1 1zM283 130.9c43.7 10.1 78.1 40.5 92.8 82.1 5.3 15.2 6.7 23.7 6.6 42 0 14.1-.4 18.1-2.6 27.6-11.7 50.1-50 87.1-100.6 97.1-5.9 1.1-13.6 1.7-23.7 1.7-17.9 0-30.2-2.3-46.2-8.6l-10.2-4.1-32.3 7.7c-17.8 4.2-32.9 7.6-33.5 7.6-.7 0-1.9-1-2.7-2.3-1.3-2-.8-5.3 5.4-35.4l6.9-33.2-4-9.7c-6.7-16-9.3-29-9.3-47.9-.1-22.9 3.4-37.8 13.5-58.1 16.9-33.9 50.3-59.4 87.4-66.7 12.5-2.5 13.1-2.6 29-2.2 10.2.3 17.7 1 23.5 2.4z"/><path d="M238.3 157.4c-32.4 6.2-61.1 29-73.3 58.3-6.1 14.7-7.4 21.2-7.4 39.3-.1 19.6 1.5 27.2 9.4 43.7l4.8 10.1-3.9 18.8c-2.2 10.4-3.8 19.3-3.7 19.9.2.7 7-.4 19.5-3.4l19.2-4.4 9.8 4.6c16.1 7.5 23.9 9.2 43.3 9.2 14.1 0 17.7-.4 25-2.3 29.1-7.9 52.3-27.4 65.2-54.8 6.7-14.5 8.2-21.5 8.2-40.9.1-14.8-.2-18.1-2.2-25.5-9.7-35.3-36.3-61.6-72-71.2-9.9-2.6-31.6-3.3-41.9-1.4zm-19.4 38.2c2.3 1.7 6.5 9.9 12.2 24.1 3.3 8.2 3.1 9.3-2.5 16.8-5 6.5-4.9 10.2.5 17.2 9.9 12.7 35.6 33.3 41.6 33.3 3.4 0 6-1.6 12-7.1 2.8-2.7 6-4.9 7-4.9s8.1 1.8 15.8 4c10.8 3.1 14.5 4.5 16.3 6.5 3.5 4.1 2.9 8.3-2.1 15.2-9.1 12.3-15.7 15.8-30.2 15.8-11.9 0-20.7-2.4-33.2-9-11.7-6.2-20.3-12.6-32.2-24-21.5-20.6-32.1-40-32.1-58.5 0-10.2 6.1-21.2 15.4-28.1 4.5-3.3 8.1-3.7 11.5-1.3z"/></svg>